<?xml version="1.0" standalone="no"?>
<!DOCTYPE svg PUBLIC "-//W3C//DTD SVG 20010904//EN"
 "http://www.w3.org/TR/2001/REC-SVG-20010904/DTD/svg10.dtd">
<svg version="1.0" xmlns="http://www.w3.org/2000/svg"
 width="1280.000000pt" height="757.000000pt" viewBox="0 0 1280.000000 757.000000"
 preserveAspectRatio="xMidYMid meet">
<metadata>
Created by potrace 1.15, written by Peter Selinger 2001-2017
</metadata>
<g transform="translate(0.000000,757.000000) scale(0.100000,-0.100000)"
fill="#000000" stroke="none">
<path d="M6050 7560 c-311 -7 -575 -18 -830 -35 -41 -3 -147 -9 -235 -15 -596
-38 -1131 -88 -1541 -144 -99 -13 -235 -30 -304 -36 -618 -57 -1197 -149
-1515 -241 -377 -108 -743 -286 -874 -423 -52 -56 -63 -82 -36 -92 8 -4 15
-12 15 -20 0 -8 4 -14 9 -14 6 0 -2 -33 -16 -72 -63 -181 -141 -465 -184 -668
-18 -86 -69 -373 -69 -393 0 -5 -4 -6 -9 -2 -5 3 -15 0 -23 -7 -7 -7 -30 -22
-51 -32 -80 -41 -114 -168 -65 -246 12 -19 21 -48 20 -65 -1 -16 -7 -97 -12
-180 -54 -787 -64 -1031 -57 -1365 7 -290 21 -637 33 -766 l6 -71 -51 -7 c-90
-12 -180 -45 -219 -81 -36 -32 -37 -36 -35 -98 1 -84 28 -135 100 -191 47 -38
68 -47 127 -57 128 -21 328 3 471 56 70 27 194 39 274 28 l55 -8 1 -200 c2
-218 13 -294 66 -470 48 -156 122 -289 221 -400 l45 -50 -91 -2 c-191 -6 -338
-40 -344 -80 -9 -63 175 -104 1093 -247 1679 -262 3505 -510 4515 -613 238
-24 1310 -24 1965 0 1796 68 3173 151 3449 209 79 16 146 48 146 68 0 47 -125
84 -435 130 -184 27 -454 61 -492 63 -18 0 -33 2 -33 3 0 0 27 18 59 38 133
82 253 258 301 441 25 97 50 267 50 352 l0 61 48 6 c26 3 119 8 207 11 260 9
282 13 324 50 29 26 48 34 96 39 117 14 241 39 277 57 20 10 64 46 98 79 34
33 66 60 72 60 21 0 108 72 114 95 3 13 1 33 -5 44 -13 24 -61 51 -89 51 -15
0 -21 9 -25 40 -8 59 -45 129 -81 151 -36 22 -82 35 -148 42 -46 4 -47 4 -33
-16 15 -22 5 -47 -20 -47 -13 0 -25 317 -25 645 l0 162 25 13 c33 17 90 101
116 170 25 66 49 196 49 265 -1 166 -79 333 -181 385 l-36 19 -13 107 c-14
120 -19 105 56 158 80 56 53 145 -61 205 l-40 21 -22 183 c-12 100 -22 203
-23 228 l0 46 49 7 c27 3 54 12 60 20 7 9 9 43 4 105 -5 75 -9 94 -25 102 -25
14 -26 117 0 149 l17 22 19 -21 c31 -34 94 -29 135 11 18 18 41 49 52 70 11
21 30 45 44 54 30 20 33 59 5 74 -15 8 -20 21 -20 48 0 83 -68 162 -126 148
-88 -22 -162 -188 -136 -304 8 -34 7 -44 -4 -49 -32 -12 -56 -72 -57 -143 -1
-58 -4 -71 -19 -76 -10 -3 -19 -13 -19 -22 -1 -9 -5 8 -10 38 -32 208 -31 206
-207 515 -322 567 -516 912 -599 1065 -82 151 -87 159 -216 288 -73 73 -155
149 -184 169 -29 20 -50 41 -46 46 4 6 0 8 -10 4 -10 -4 -16 -2 -14 5 2 11
-15 18 -206 78 -434 137 -864 201 -1542 230 -889 38 -2374 57 -3125 40z m128
-537 c-10 -2 -26 -2 -35 0 -10 3 -2 5 17 5 19 0 27 -2 18 -5z m1279 1 c-3 -3
-12 -4 -19 -1 -8 3 -5 6 6 6 11 1 17 -2 13 -5z m-6493 -278 c-5 -12 -64 -29
-64 -19 0 3 58 31 67 33 1 0 0 -6 -3 -14z m3343 -4742 l231 -6 27 -77 c70
-196 183 -390 296 -506 l68 -70 -92 -1 c-110 0 -170 -16 -208 -54 -16 -15 -30
-26 -32 -24 -2 2 -278 -1 -614 -8 l-609 -12 -22 22 c-48 48 -196 64 -609 66
-178 0 -323 2 -323 2 0 1 18 39 40 86 51 110 97 288 117 459 l17 136 740 -4
c408 -2 845 -6 973 -9z m3873 -424 c726 -37 819 -40 1238 -42 188 -1 342 -4
342 -7 0 -3 4 -43 10 -89 25 -218 103 -396 241 -546 l54 -59 -205 7 c-566 19
-1315 64 -1920 115 -148 13 -209 15 -219 7 -12 -9 -13 -7 -8 8 36 94 73 274
123 595 l5 34 72 -7 c40 -3 160 -10 267 -16z m-2357 -292 c9 -46 20 -92 23
-104 l6 -21 -179 23 c-98 13 -185 24 -193 24 -8 1 14 9 50 19 83 22 185 71
230 110 19 17 37 30 40 31 3 0 13 -37 23 -82z m-366 -84 c-3 -3 -12 -4 -19 -1
-8 3 -5 6 6 6 11 1 17 -2 13 -5z"/>
</g>
</svg>
